# xmcd CD database file
#
# Track frame offsets:
#	183
#	21213
#	38430
#	54588
#	71215
#	93283
#	115318
#	133403
#	149295
#	160790
#	184080
#
# Disc length: 2606 seconds
#
# Revision: 2
# Processed by: cddbd v1.5.1PL0 Copyright (c) Steve Scherf et al.
# Submitted via: CDex 1.51
#
DISCID=990a2c0b
DTITLE=Verônica Sabino - Verônica
DYEAR=1993
DGENRE=MPB
TTITLE0=Ser ou star
TTITLE1=Eu te odeio
TTITLE2=Nao há razão pra chorar
TTITLE3=Peito vazio
TTITLE4=Três da madrugada
TTITLE5=Teia
TTITLE6=Por causa de você
TTITLE7=Desafinada
TTITLE8=Cansei de ilusões
TTITLE9=Meu namorado
TTITLE10=Qualquer canção
EXTD=YEAR: 1993
EXTT0=
EXTT1=
EXTT2=
EXTT3=
EXTT4=
EXTT5=
EXTT6=
EXTT7=
EXTT8=
EXTT9=
EXTT10=
PLAYORDER=
